<svg id="visual" viewBox="0 0 900 600" width="900" height="600" xmlns="http://www.w3.org/2000/svg" xmlns:xlink="http://www.w3.org/1999/xlink" version="1.1"><g stroke-width="1" stroke-linejoin="bevel"><path d="M483 297L432 339L470 375Z" fill="#131319" stroke="#131319"></path><path d="M432 339L403 378L470 375Z" fill="#101017" stroke="#101017"></path><path d="M483 297L411 214L432 339Z" fill="#131319" stroke="#131319"></path><path d="M432 339L294 366L403 378Z" fill="#17181d" stroke="#17181d"></path><path d="M508 467L579 410L470 375Z" fill="#0d0d15" stroke="#0d0d15"></path><path d="M470 375L579 410L483 297Z" fill="#00010c" stroke="#00010c"></path><path d="M483 297L618 277L476 211Z" fill="#04050f" stroke="#04050f"></path><path d="M476 211L411 214L483 297Z" fill="#04050f" stroke="#04050f"></path><path d="M403 378L508 467L470 375Z" fill="#17181d" stroke="#17181d"></path><path d="M579 410L618 277L483 297Z" fill="#101017" stroke="#101017"></path><path d="M270 335L294 366L432 339Z" fill="#15151b" stroke="#15151b"></path><path d="M403 378L408 525L508 467Z" fill="#0d0d15" stroke="#0d0d15"></path><path d="M618 277L629 239L476 211Z" fill="#1e1e24" stroke="#1e1e24"></path><path d="M339 104L323 208L411 214Z" fill="#090912" stroke="#090912"></path><path d="M411 214L323 208L432 339Z" fill="#17181d" stroke="#17181d"></path><path d="M327 512L408 525L403 378Z" fill="#090912" stroke="#090912"></path><path d="M323 208L270 335L432 339Z" fill="#090912" stroke="#090912"></path><path d="M294 366L327 512L403 378Z" fill="#00010c" stroke="#00010c"></path><path d="M590 533L668 438L579 410Z" fill="#00010c" stroke="#00010c"></path><path d="M579 410L668 438L618 277Z" fill="#1a1a20" stroke="#1a1a20"></path><path d="M618 277L690 265L629 239Z" fill="#1e1e24" stroke="#1e1e24"></path><path d="M590 533L579 410L508 467Z" fill="#090912" stroke="#090912"></path><path d="M629 239L571 134L476 211Z" fill="#00010c" stroke="#00010c"></path><path d="M476 211L412 79L411 214Z" fill="#1e1e24" stroke="#1e1e24"></path><path d="M231 401L327 512L294 366Z" fill="#090912" stroke="#090912"></path><path d="M668 438L690 265L618 277Z" fill="#1a1a20" stroke="#1a1a20"></path><path d="M629 239L699 173L571 134Z" fill="#1c1c22" stroke="#1c1c22"></path><path d="M512 600L590 533L508 467Z" fill="#15151b" stroke="#15151b"></path><path d="M192 289L231 401L270 335Z" fill="#1a1a20" stroke="#1a1a20"></path><path d="M270 335L231 401L294 366Z" fill="#131319" stroke="#131319"></path><path d="M571 134L479 81L476 211Z" fill="#04050f" stroke="#04050f"></path><path d="M479 81L412 79L476 211Z" fill="#1e1e24" stroke="#1e1e24"></path><path d="M412 79L339 104L411 214Z" fill="#131319" stroke="#131319"></path><path d="M323 208L192 289L270 335Z" fill="#101017" stroke="#101017"></path><path d="M391 600L512 600L408 525Z" fill="#101017" stroke="#101017"></path><path d="M408 525L512 600L508 467Z" fill="#00010c" stroke="#00010c"></path><path d="M605 600L664 530L590 533Z" fill="#1c1c22" stroke="#1c1c22"></path><path d="M590 533L664 530L668 438Z" fill="#131319" stroke="#131319"></path><path d="M668 438L787 317L690 265Z" fill="#04050f" stroke="#04050f"></path><path d="M285 600L391 600L327 512Z" fill="#1c1c22" stroke="#1c1c22"></path><path d="M327 512L391 600L408 525Z" fill="#0d0d15" stroke="#0d0d15"></path><path d="M690 265L699 173L629 239Z" fill="#04050f" stroke="#04050f"></path><path d="M571 134L536 0L479 81Z" fill="#00010c" stroke="#00010c"></path><path d="M160 229L192 289L323 208Z" fill="#1c1c22" stroke="#1c1c22"></path><path d="M512 600L605 600L590 533Z" fill="#1e1e24" stroke="#1e1e24"></path><path d="M809 394L787 317L668 438Z" fill="#090912" stroke="#090912"></path><path d="M690 265L831 200L699 173Z" fill="#131319" stroke="#131319"></path><path d="M220 600L285 600L327 512Z" fill="#0d0d15" stroke="#0d0d15"></path><path d="M171 533L327 512L231 401Z" fill="#1a1a20" stroke="#1a1a20"></path><path d="M308 0L230 119L339 104Z" fill="#17181d" stroke="#17181d"></path><path d="M339 104L230 119L323 208Z" fill="#1c1c22" stroke="#1c1c22"></path><path d="M720 0L670 73L815 73Z" fill="#1a1a20" stroke="#1a1a20"></path><path d="M699 173L670 73L571 134Z" fill="#1c1c22" stroke="#1c1c22"></path><path d="M479 81L406 0L412 79Z" fill="#1c1c22" stroke="#1c1c22"></path><path d="M230 119L160 229L323 208Z" fill="#17181d" stroke="#17181d"></path><path d="M133 460L171 533L231 401Z" fill="#1c1c22" stroke="#1c1c22"></path><path d="M605 600L676 600L664 530Z" fill="#04050f" stroke="#04050f"></path><path d="M839 537L809 394L668 438Z" fill="#00010c" stroke="#00010c"></path><path d="M633 0L536 0L571 134Z" fill="#1c1c22" stroke="#1c1c22"></path><path d="M412 79L406 0L339 104Z" fill="#131319" stroke="#131319"></path><path d="M536 0L406 0L479 81Z" fill="#131319" stroke="#131319"></path><path d="M839 537L668 438L664 530Z" fill="#04050f" stroke="#04050f"></path><path d="M133 460L231 401L60 332Z" fill="#17181d" stroke="#17181d"></path><path d="M60 332L231 401L192 289Z" fill="#0d0d15" stroke="#0d0d15"></path><path d="M171 533L220 600L327 512Z" fill="#00010c" stroke="#00010c"></path><path d="M80 79L115 232L160 229Z" fill="#101017" stroke="#101017"></path><path d="M160 229L115 232L192 289Z" fill="#0d0d15" stroke="#0d0d15"></path><path d="M670 73L633 0L571 134Z" fill="#0d0d15" stroke="#0d0d15"></path><path d="M406 0L308 0L339 104Z" fill="#15151b" stroke="#15151b"></path><path d="M230 119L80 79L160 229Z" fill="#0d0d15" stroke="#0d0d15"></path><path d="M787 317L831 200L690 265Z" fill="#15151b" stroke="#15151b"></path><path d="M670 73L720 0L633 0Z" fill="#131319" stroke="#131319"></path><path d="M900 292L831 200L787 317Z" fill="#17181d" stroke="#17181d"></path><path d="M676 600L760 600L664 530Z" fill="#1c1c22" stroke="#1c1c22"></path><path d="M115 232L60 332L192 289Z" fill="#0d0d15" stroke="#0d0d15"></path><path d="M133 460L103 600L171 533Z" fill="#15151b" stroke="#15151b"></path><path d="M815 73L670 73L699 173Z" fill="#131319" stroke="#131319"></path><path d="M760 600L839 537L664 530Z" fill="#04050f" stroke="#04050f"></path><path d="M809 394L900 292L787 317Z" fill="#101017" stroke="#101017"></path><path d="M308 0L219 0L230 119Z" fill="#101017" stroke="#101017"></path><path d="M115 232L0 262L60 332Z" fill="#17181d" stroke="#17181d"></path><path d="M60 332L63 434L133 460Z" fill="#090912" stroke="#090912"></path><path d="M171 533L103 600L220 600Z" fill="#101017" stroke="#101017"></path><path d="M900 407L900 292L809 394Z" fill="#17181d" stroke="#17181d"></path><path d="M831 200L815 73L699 173Z" fill="#090912" stroke="#090912"></path><path d="M900 171L815 73L831 200Z" fill="#04050f" stroke="#04050f"></path><path d="M839 537L900 407L809 394Z" fill="#17181d" stroke="#17181d"></path><path d="M815 73L776 0L720 0Z" fill="#0d0d15" stroke="#0d0d15"></path><path d="M0 521L103 600L133 460Z" fill="#15151b" stroke="#15151b"></path><path d="M900 292L900 171L831 200Z" fill="#131319" stroke="#131319"></path><path d="M815 73L900 0L776 0Z" fill="#131319" stroke="#131319"></path><path d="M219 0L80 79L230 119Z" fill="#0d0d15" stroke="#0d0d15"></path><path d="M900 600L900 529L839 537Z" fill="#131319" stroke="#131319"></path><path d="M839 537L900 529L900 407Z" fill="#17181d" stroke="#17181d"></path><path d="M60 332L0 392L63 434Z" fill="#00010c" stroke="#00010c"></path><path d="M63 434L0 521L133 460Z" fill="#15151b" stroke="#15151b"></path><path d="M0 262L0 392L60 332Z" fill="#131319" stroke="#131319"></path><path d="M0 227L0 262L115 232Z" fill="#17181d" stroke="#17181d"></path><path d="M80 79L0 227L115 232Z" fill="#17181d" stroke="#17181d"></path><path d="M760 600L900 600L839 537Z" fill="#090912" stroke="#090912"></path><path d="M900 171L900 65L815 73Z" fill="#17181d" stroke="#17181d"></path><path d="M0 392L0 521L63 434Z" fill="#0d0d15" stroke="#0d0d15"></path><path d="M219 0L89 0L80 79Z" fill="#04050f" stroke="#04050f"></path><path d="M80 79L0 90L0 227Z" fill="#04050f" stroke="#04050f"></path><path d="M0 0L0 90L80 79Z" fill="#1e1e24" stroke="#1e1e24"></path><path d="M0 521L0 600L103 600Z" fill="#15151b" stroke="#15151b"></path><path d="M900 65L900 0L815 73Z" fill="#17181d" stroke="#17181d"></path><path d="M89 0L0 0L80 79Z" fill="#090912" stroke="#090912"></path></g></svg>